<?xml version="1.0" encoding="UTF-8" standalone="no"?><!DOCTYPE svg PUBLIC "-//W3C//DTD SVG 1.1//EN" "http://www.w3.org/Graphics/SVG/1.1/DTD/svg11.dtd"><!-- Generated by graphviz version 2.40.1 (20161225.0304)
 --><!-- Title: graphname Pages: 1 --><svg xmlns="http://www.w3.org/2000/svg" xmlns:xlink="http://www.w3.org/1999/xlink" width="821pt" height="1169pt" viewBox="0.00 0.00 1169.10 820.70">
<g id="graph0" class="graph" transform="scale(1 1) rotate(-90) translate(-1165.099 816.7)">
<title>graphname</title>
<polygon fill="#ffffff" stroke="transparent" points="-4,4 -4,-816.7 1165.099,-816.7 1165.099,4 -4,4"/>
<!-- &lt;cond&#45;expr&gt; -->
<g id="node1" class="node">
<title>&lt;cond-expr&gt;</title>
<ellipse fill="none" stroke="#000000" cx="877.486" cy="-786" rx="61.1461" ry="18"/>
<text text-anchor="middle" x="877.486" y="-781.8" font-family="Times,serif" font-size="14.00" fill="#000000">&lt;cond-expr&gt;</text>
</g>
<!-- &lt;log&#45;or&#45;expr&gt; -->
<g id="node2" class="node">
<title>&lt;log-or-expr&gt;</title>
<ellipse fill="none" stroke="#000000" cx="755.486" cy="-677" rx="65.7992" ry="18"/>
<text text-anchor="middle" x="755.486" y="-672.8" font-family="Times,serif" font-size="14.00" fill="#000000">&lt;log-or-expr&gt;</text>
</g>
<!-- &lt;cond&#45;expr&gt;&#45;&gt;&lt;log&#45;or&#45;expr&gt; -->
<g id="edge1" class="edge">
<title>&lt;cond-expr&gt;-&gt;&lt;log-or-expr&gt;</title>
<path fill="none" stroke="#000000" d="M858.1548,-768.7286C837.8401,-750.5786 805.715,-721.8767 782.8126,-701.4147"/>
<polygon fill="#000000" stroke="#000000" points="784.92,-698.6041 775.1309,-694.5515 780.2562,-703.8242 784.92,-698.6041"/>
</g>
<!-- &lt;log&#45;or&#45;expr&gt; ? &lt;expr&gt; : &lt;cond&#45;expr&gt; -->
<g id="node3" class="node">
<title>&lt;log-or-expr&gt; ? &lt;expr&gt; : &lt;cond-expr&gt;</title>
<ellipse fill="none" stroke="#000000" cx="1000.486" cy="-677" rx="160.7259" ry="18"/>
<text text-anchor="middle" x="1000.486" y="-672.8" font-family="Times,serif" font-size="14.00" fill="#000000">&lt;log-or-expr&gt; ? &lt;expr&gt; : &lt;cond-expr&gt;</text>
</g>
<!-- &lt;cond&#45;expr&gt;&#45;&gt;&lt;log&#45;or&#45;expr&gt; ? &lt;expr&gt; : &lt;cond&#45;expr&gt; -->
<g id="edge2" class="edge">
<title>&lt;cond-expr&gt;-&gt;&lt;log-or-expr&gt; ? &lt;expr&gt; : &lt;cond-expr&gt;</title>
<path fill="none" stroke="#000000" d="M896.9758,-768.7286C917.3357,-750.686 949.4625,-722.216 972.5246,-701.7788"/>
<polygon fill="#000000" stroke="#000000" points="975.107,-704.167 980.2698,-694.9152 970.4643,-698.9281 975.107,-704.167"/>
</g>
<!-- &lt;log&#45;and&#45;expr&gt; -->
<g id="node4" class="node">
<title>&lt;log-and-expr&gt;</title>
<ellipse fill="none" stroke="#000000" cx="643.486" cy="-569" rx="71.6004" ry="18"/>
<text text-anchor="middle" x="643.486" y="-564.8" font-family="Times,serif" font-size="14.00" fill="#000000">&lt;log-and-expr&gt;</text>
</g>
<!-- &lt;log&#45;or&#45;expr&gt;&#45;&gt;&lt;log&#45;and&#45;expr&gt; -->
<g id="edge3" class="edge">
<title>&lt;log-or-expr&gt;-&gt;&lt;log-and-expr&gt;</title>
<path fill="none" stroke="#000000" d="M737.4913,-659.6479C718.987,-641.8045 690.0003,-613.853 669.1057,-593.7046"/>
<polygon fill="#000000" stroke="#000000" points="671.4362,-591.0897 661.8082,-586.6678 666.5772,-596.1286 671.4362,-591.0897"/>
</g>
<!-- &lt;log&#45;or&#45;expr&gt; || &lt;log&#45;and&#45;expr&gt; -->
<g id="node5" class="node">
<title>&lt;log-or-expr&gt; || &lt;log-and-expr&gt;</title>
<ellipse fill="none" stroke="#000000" cx="868.486" cy="-569" rx="135.2047" ry="18"/>
<text text-anchor="middle" x="868.486" y="-564.8" font-family="Times,serif" font-size="14.00" fill="#000000">&lt;log-or-expr&gt; || &lt;log-and-expr&gt;</text>
</g>
<!-- &lt;log&#45;or&#45;expr&gt;&#45;&gt;&lt;log&#45;or&#45;expr&gt; || &lt;log&#45;and&#45;expr&gt; -->
<g id="edge4" class="edge">
<title>&lt;log-or-expr&gt;-&gt;&lt;log-or-expr&gt; || &lt;log-and-expr&gt;</title>
<path fill="none" stroke="#000000" d="M773.6415,-659.6479C792.1998,-641.9107 821.2087,-614.1854 842.2604,-594.0653"/>
<polygon fill="#000000" stroke="#000000" points="844.8111,-596.4688 849.6221,-587.0293 839.9746,-591.4084 844.8111,-596.4688"/>
</g>
<!-- &lt;incl&#45;or&#45;expr&gt; -->
<g id="node6" class="node">
<title>&lt;incl-or-expr&gt;</title>
<ellipse fill="none" stroke="#000000" cx="526.486" cy="-461" rx="68.0829" ry="18"/>
<text text-anchor="middle" x="526.486" y="-456.8" font-family="Times,serif" font-size="14.00" fill="#000000">&lt;incl-or-expr&gt;</text>
</g>
<!-- &lt;log&#45;and&#45;expr&gt;&#45;&gt;&lt;incl&#45;or&#45;expr&gt; -->
<g id="edge5" class="edge">
<title>&lt;log-and-expr&gt;-&gt;&lt;incl-or-expr&gt;</title>
<path fill="none" stroke="#000000" d="M624.4276,-551.4076C605.0504,-533.5209 574.8664,-505.6588 553.1276,-485.5922"/>
<polygon fill="#000000" stroke="#000000" points="555.2584,-482.7959 545.5364,-478.5849 550.5104,-487.9396 555.2584,-482.7959"/>
</g>
<!-- &lt;log&#45;and&#45;expr&gt; &amp;&amp; &lt;incl&#45;or&#45;expr&gt; -->
<g id="node7" class="node">
<title>&lt;log-and-expr&gt; &amp;&amp; &lt;incl-or-expr&gt;</title>
<ellipse fill="none" stroke="#000000" cx="761.486" cy="-461" rx="148.8154" ry="18"/>
<text text-anchor="middle" x="761.486" y="-456.8" font-family="Times,serif" font-size="14.00" fill="#000000">&lt;log-and-expr&gt; &amp;&amp; &lt;incl-or-expr&gt;</text>
</g>
<!-- &lt;log&#45;and&#45;expr&gt;&#45;&gt;&lt;log&#45;and&#45;expr&gt; &amp;&amp; &lt;incl&#45;or&#45;expr&gt; -->
<g id="edge6" class="edge">
<title>&lt;log-and-expr&gt;-&gt;&lt;log-and-expr&gt; &amp;&amp; &lt;incl-or-expr&gt;</title>
<path fill="none" stroke="#000000" d="M662.7074,-551.4076C682.1339,-533.6274 712.3302,-505.9901 734.2243,-485.9514"/>
<polygon fill="#000000" stroke="#000000" points="736.866,-488.2783 741.8797,-478.9448 732.1399,-483.1146 736.866,-488.2783"/>
</g>
<!-- &lt;exc&#45;or&#45;expr&gt; -->
<g id="node8" class="node">
<title>&lt;exc-or-expr&gt;</title>
<ellipse fill="none" stroke="#000000" cx="418.486" cy="-352" rx="66.9217" ry="18"/>
<text text-anchor="middle" x="418.486" y="-347.8" font-family="Times,serif" font-size="14.00" fill="#000000">&lt;exc-or-expr&gt;</text>
</g>
<!-- &lt;incl&#45;or&#45;expr&gt;&#45;&gt;&lt;exc&#45;or&#45;expr&gt; -->
<g id="edge7" class="edge">
<title>&lt;incl-or-expr&gt;-&gt;&lt;exc-or-expr&gt;</title>
<path fill="none" stroke="#000000" d="M509.134,-443.4873C491.2631,-425.4509 463.2529,-397.1814 443.0976,-376.8395"/>
<polygon fill="#000000" stroke="#000000" points="445.3198,-374.1094 435.7951,-369.4693 440.3472,-379.0363 445.3198,-374.1094"/>
</g>
<!-- &lt;incl&#45;or&#45;expr&gt; | &lt;exc&#45;or&#45;expr&gt; -->
<g id="node9" class="node">
<title>&lt;incl-or-expr&gt; | &lt;exc-or-expr&gt;</title>
<ellipse fill="none" stroke="#000000" cx="634.486" cy="-352" rx="130.9497" ry="18"/>
<text text-anchor="middle" x="634.486" y="-347.8" font-family="Times,serif" font-size="14.00" fill="#000000">&lt;incl-or-expr&gt; | &lt;exc-or-expr&gt;</text>
</g>
<!-- &lt;incl&#45;or&#45;expr&gt;&#45;&gt;&lt;incl&#45;or&#45;expr&gt; | &lt;exc&#45;or&#45;expr&gt; -->
<g id="edge8" class="edge">
<title>&lt;incl-or-expr&gt;-&gt;&lt;incl-or-expr&gt; | &lt;exc-or-expr&gt;</title>
<path fill="none" stroke="#000000" d="M543.8381,-443.4873C561.4975,-425.6643 589.0576,-397.849 609.1556,-377.565"/>
<polygon fill="#000000" stroke="#000000" points="611.9046,-379.7633 616.4568,-370.1962 606.9321,-374.8364 611.9046,-379.7633"/>
</g>
<!-- &lt;and&#45;expr&gt; -->
<g id="node10" class="node">
<title>&lt;and-expr&gt;</title>
<ellipse fill="none" stroke="#000000" cx="320.486" cy="-244" rx="56.4901" ry="18"/>
<text text-anchor="middle" x="320.486" y="-239.8" font-family="Times,serif" font-size="14.00" fill="#000000">&lt;and-expr&gt;</text>
</g>
<!-- &lt;exc&#45;or&#45;expr&gt;&#45;&gt;&lt;and&#45;expr&gt; -->
<g id="edge9" class="edge">
<title>&lt;exc-or-expr&gt;-&gt;&lt;and-expr&gt;</title>
<path fill="none" stroke="#000000" d="M402.3033,-334.166C386.1774,-316.3945 361.2752,-288.9513 343.1782,-269.0077"/>
<polygon fill="#000000" stroke="#000000" points="345.6795,-266.5558 336.3676,-261.5022 340.4956,-271.2598 345.6795,-266.5558"/>
</g>
<!-- &lt;exc&#45;or&#45;expr&gt; ^ &lt;and&#45;expr&gt; -->
<g id="node11" class="node">
<title>&lt;exc-or-expr&gt; ^ &lt;and-expr&gt;</title>
<ellipse fill="none" stroke="#000000" cx="516.486" cy="-244" rx="121.551" ry="18"/>
<text text-anchor="middle" x="516.486" y="-239.8" font-family="Times,serif" font-size="14.00" fill="#000000">&lt;exc-or-expr&gt; ^ &lt;and-expr&gt;</text>
</g>
<!-- &lt;exc&#45;or&#45;expr&gt;&#45;&gt;&lt;exc&#45;or&#45;expr&gt; ^ &lt;and&#45;expr&gt; -->
<g id="edge10" class="edge">
<title>&lt;exc-or-expr&gt;-&gt;&lt;exc-or-expr&gt; ^ &lt;and-expr&gt;</title>
<path fill="none" stroke="#000000" d="M434.6688,-334.166C450.6987,-316.5003 475.4008,-289.2776 493.47,-269.3646"/>
<polygon fill="#000000" stroke="#000000" points="496.1513,-271.6181 500.2793,-261.8605 490.9674,-266.9142 496.1513,-271.6181"/>
</g>
<!-- &lt;eq&#45;expr&gt; -->
<g id="node12" class="node">
<title>&lt;eq-expr&gt;</title>
<ellipse fill="none" stroke="#000000" cx="231.486" cy="-135" rx="51.3322" ry="18"/>
<text text-anchor="middle" x="231.486" y="-130.8" font-family="Times,serif" font-size="14.00" fill="#000000">&lt;eq-expr&gt;</text>
</g>
<!-- &lt;and&#45;expr&gt;&#45;&gt;&lt;eq&#45;expr&gt; -->
<g id="edge11" class="edge">
<title>&lt;and-expr&gt;-&gt;&lt;eq-expr&gt;</title>
<path fill="none" stroke="#000000" d="M306.1867,-226.4873C291.5895,-208.6098 268.7833,-180.6787 252.2083,-160.379"/>
<polygon fill="#000000" stroke="#000000" points="254.7857,-158.0016 245.7499,-152.4693 249.3635,-162.4288 254.7857,-158.0016"/>
</g>
<!-- &lt;and&#45;expr&gt; &amp; &lt;eq&#45;expr&gt; -->
<g id="node13" class="node">
<title>&lt;and-expr&gt; &amp; &lt;eq-expr&gt;</title>
<ellipse fill="none" stroke="#000000" cx="409.486" cy="-135" rx="108.9294" ry="18"/>
<text text-anchor="middle" x="409.486" y="-130.8" font-family="Times,serif" font-size="14.00" fill="#000000">&lt;and-expr&gt; &amp; &lt;eq-expr&gt;</text>
</g>
<!-- &lt;and&#45;expr&gt;&#45;&gt;&lt;and&#45;expr&gt; &amp; &lt;eq&#45;expr&gt; -->
<g id="edge12" class="edge">
<title>&lt;and-expr&gt;-&gt;&lt;and-expr&gt; &amp; &lt;eq-expr&gt;</title>
<path fill="none" stroke="#000000" d="M334.7854,-226.4873C349.2099,-208.8214 371.6501,-181.3384 388.1727,-161.1029"/>
<polygon fill="#000000" stroke="#000000" points="391.015,-163.1558 394.6286,-153.1962 385.5929,-158.7285 391.015,-163.1558"/>
</g>
<!-- &lt;rel&#45;expr&gt; -->
<g id="node14" class="node">
<title>&lt;rel-expr&gt;</title>
<ellipse fill="none" stroke="#000000" cx="52.486" cy="-27" rx="52.4721" ry="18"/>
<text text-anchor="middle" x="52.486" y="-22.8" font-family="Times,serif" font-size="14.00" fill="#000000">&lt;rel-expr&gt;</text>
</g>
<!-- &lt;eq&#45;expr&gt;&#45;&gt;&lt;rel&#45;expr&gt; -->
<g id="edge13" class="edge">
<title>&lt;eq-expr&gt;-&gt;&lt;rel-expr&gt;</title>
<path fill="none" stroke="#000000" d="M205.4579,-119.2959C174.3047,-100.4995 122.0128,-68.9491 87.3795,-48.0531"/>
<polygon fill="#000000" stroke="#000000" points="88.916,-44.8924 78.5456,-42.7231 85.2997,-50.886 88.916,-44.8924"/>
</g>
<!-- &lt;eq&#45;expr&gt; == &lt;rel&#45;expr&gt; -->
<g id="node15" class="node">
<title>&lt;eq-expr&gt; == &lt;rel-expr&gt;</title>
<ellipse fill="none" stroke="#000000" cx="231.486" cy="-27" rx="108.6704" ry="18"/>
<text text-anchor="middle" x="231.486" y="-22.8" font-family="Times,serif" font-size="14.00" fill="#000000">&lt;eq-expr&gt; == &lt;rel-expr&gt;</text>
</g>
<!-- &lt;eq&#45;expr&gt;&#45;&gt;&lt;eq&#45;expr&gt; == &lt;rel&#45;expr&gt; -->
<g id="edge14" class="edge">
<title>&lt;eq-expr&gt;-&gt;&lt;eq-expr&gt; == &lt;rel-expr&gt;</title>
<path fill="none" stroke="#000000" d="M231.486,-116.6793C231.486,-99.821 231.486,-74.5651 231.486,-55.147"/>
<polygon fill="#000000" stroke="#000000" points="234.9861,-55.0501 231.486,-45.0502 227.9861,-55.0502 234.9861,-55.0501"/>
</g>
<!-- &lt;eq&#45;expr&gt; != &lt;rel&#45;expr&gt; -->
<g id="node16" class="node">
<title>&lt;eq-expr&gt; != &lt;rel-expr&gt;</title>
<ellipse fill="none" stroke="#000000" cx="464.486" cy="-27" rx="106.209" ry="18"/>
<text text-anchor="middle" x="464.486" y="-22.8" font-family="Times,serif" font-size="14.00" fill="#000000">&lt;eq-expr&gt; != &lt;rel-expr&gt;</text>
</g>
<!-- &lt;eq&#45;expr&gt;&#45;&gt;&lt;eq&#45;expr&gt; != &lt;rel&#45;expr&gt; -->
<g id="edge15" class="edge">
<title>&lt;eq-expr&gt;-&gt;&lt;eq-expr&gt; != &lt;rel-expr&gt;</title>
<path fill="none" stroke="#000000" d="M262.9095,-120.4346C303.0022,-101.8509 372.653,-69.5664 418.6623,-48.2402"/>
<polygon fill="#000000" stroke="#000000" points="420.2166,-51.3775 427.8175,-43.9966 417.2728,-45.0266 420.2166,-51.3775"/>
</g>
</g>
</svg>